<?xml version="1.0" standalone="no"?><svg xmlns="http://www.w3.org/2000/svg" viewBox="0 0 1440 320"><path fill="#6CA6D9" fill-opacity="1" d="M0,192L26.7,181.3C53.3,171,107,149,160,160C213.3,171,267,213,320,245.3C373.3,277,427,299,480,293.3C533.3,288,587,256,640,256C693.3,256,747,288,800,272C853.3,256,907,192,960,192C1013.3,192,1067,256,1120,250.7C1173.3,245,1227,171,1280,160C1333.3,149,1387,203,1413,229.3L1440,256L1440,0L1413.3,0C1386.7,0,1333,0,1280,0C1226.7,0,1173,0,1120,0C1066.7,0,1013,0,960,0C906.7,0,853,0,800,0C746.7,0,693,0,640,0C586.7,0,533,0,480,0C426.7,0,373,0,320,0C266.7,0,213,0,160,0C106.7,0,53,0,27,0L0,0Z"></path></svg>